<svg xmlns="http://www.w3.org/2000/svg" width="1676" height="1425" fill="none"><g clip-path="url(#a)"><path fill="#909090" fill-rule="evenodd" stroke="#2B2A29" stroke-width=".721" d="M500.382 4.54c11.823 13.054-10.878 52.687-50.606 88.537-29.891 27.053-65.551 39.16-82.956 41.62-24.877 19.296-47.389 39.728-67.726 61.199l-2.176 2.554c14.567-8.04 51.93-19.674 93.55-14.566 53.065 6.432 94.401 25.823 92.32 43.322-2.081 17.499-46.917 26.39-99.982 19.958-49.376-5.959-87.307-33.39-91.847-41.714l-24.404 28.188c-4.257 5.297-8.324 10.689-12.297 16.175l-11.067 15.702c-10.972 16.269-20.999 32.823-29.985 49.849 12.013-11.446 45.214-32.255 86.739-38.12 52.971-7.378 97.901.757 100.36 18.161 2.46 17.405-38.593 37.553-91.563 44.931-49.66 6.905-93.644-10.122-99.603-16.932-20.337 40.012-35.188 81.915-45.12 124.764 9.743-14.661 35.944-41.525 72.929-57.038 49.376-20.62 94.874-24.215 101.684-7.945 6.811 16.269-27.714 46.065-77.09 66.686-44.931 18.729-90.523 14.283-99.982 9.364-7.757 37.269-11.824 75.199-12.486 113.414 0 45.403 4.54 90.806 12.675 135.075l7.473 27.242c.756-16.838 10.026-54.484 35.471-87.213 32.728-42.281 70.659-67.821 84.563-57.037 13.905 10.783-1.418 53.821-34.147 96.103-30.836 39.728-74.347 58.268-83.239 57.416l22.418 81.537c22.796 62.335 52.403 121.548 90.144 175.848-5.675-12.491-12.58-54.678.852-98.284 15.796-51.079 42.281-88.347 59.024-83.145 16.837 5.203 17.594 50.89 1.797 101.968-15.796 51.079-53.632 84.851-59.024 83.141-.095 0-.189-.09-.189-.09 6.716 9.46 13.621 18.82 20.81 28l60.821 65.93c-6.905-18.26-13.716-49.28-9.459-82.96 6.621-53.063 26.201-94.304 43.701-92.129 17.404 2.176 26.201 47.011 19.485 100.079-5.77 45.59-29.607 81.34-39.822 90.05l7.756 8.42 87.212 71.7c-10.31-16.46-23.364-46.35-25.445-81.26-3.216-53.35 8.419-97.52 26.013-98.56 17.593-1.04 34.336 41.43 37.552 94.78 2.743 45.78-14.189 85.22-22.607 95.82 33.863 22.04 69.24 39.92 106.508 54.67-13.053-14.75-29.606-39.82-38.025-70.85-13.905-51.64-11.445-97.24 5.486-101.78 17.027-4.54 41.998 33.58 55.998 85.23 11.161 41.43 4.351 80.87-1.514 95.73 6.622 2.36 13.338 4.63 20.148 6.9l93.171 21.76c-15.796-11.64-36.322-31.79-50.889-58.93-25.161-47.2-33.107-92.13-17.594-100.46 15.513-8.32 48.525 23.27 73.686 70.47 20.715 38.69 22.607 79.74 19.864 94.69l73.118 14c1.702.47 3.31.94 5.013 1.51a95.727 95.727 0 0 1 5.013-1.51l73.119-14c-2.744-14.95-.852-56 19.863-94.69 25.161-47.2 58.173-78.7 73.686-70.47 15.51 8.33 7.66 53.26-17.594 100.46-14.472 27.14-34.998 47.2-50.889 58.93l93.173-21.76c6.81-2.18 13.52-4.54 20.15-6.9-5.96-14.76-12.68-54.3-1.52-95.73 13.91-51.65 38.97-89.77 56-85.23 17.03 4.54 19.49 50.14 5.49 101.78-8.42 31.12-24.98 56.19-38.03 70.85 37.27-14.75 72.65-32.63 106.51-54.67-8.42-10.6-25.35-50.04-22.61-95.82 3.22-53.35 20.06-95.82 37.55-94.78 17.6 1.04 29.23 45.21 26.02 98.56-2.08 34.91-15.04 64.8-25.45 81.26l87.21-71.7 7.76-8.42c-10.22-8.8-34.15-44.55-39.82-90.05-6.62-53.068 2.08-97.903 19.48-100.079 17.41-2.175 36.99 39.066 43.7 92.129 4.26 33.68-2.55 64.7-9.45 82.96l60.82-65.93c7.19-9.18 14.19-18.45 20.81-28-.1 0-.19.09-.19.09-5.39 1.71-43.23-32.062-59.03-83.141-15.79-51.078-14.94-96.765 1.8-101.968 16.84-5.202 43.23 32.066 59.02 83.145 13.53 43.606 6.63 85.793.86 98.284 37.74-54.205 67.34-113.513 90.14-175.848l22.42-81.537c-8.89.757-52.5-17.688-83.24-57.416-32.73-42.282-48.05-85.32-34.15-96.103 13.91-10.784 51.74 14.756 84.57 57.037 25.44 32.729 34.71 70.375 35.47 87.213l7.47-27.242c8.13-44.269 12.67-89.766 12.67-135.17-.56-38.214-4.63-76.239-12.48-113.413-9.46 4.918-55.05 9.364-99.98-9.365-49.38-20.62-83.9-50.511-77.09-66.686 6.81-16.269 52.3-12.675 101.68 7.946 37.08 15.513 63.19 42.376 72.93 57.038-9.84-42.944-24.78-84.753-45.12-124.765-5.96 6.811-50.04 23.837-99.6 16.932-52.97-7.378-93.93-27.526-91.57-44.93 2.46-17.405 47.39-25.54 100.36-18.162 41.53 5.77 74.73 26.58 86.74 38.12-8.98-16.931-18.92-33.579-29.98-49.849l-11.07-15.702c-3.97-5.391-8.04-10.783-12.3-16.175l-24.4-28.188c-4.54 8.324-42.47 35.756-91.85 41.715-53.06 6.432-97.9-2.46-99.98-19.959-2.08-17.499 39.26-36.795 92.32-43.322 41.62-5.013 78.98 6.621 93.55 14.567l-2.18-2.554c-20.33-21.472-42.84-41.904-67.72-61.2-17.41-2.554-52.97-14.661-82.96-41.62-39.73-35.85-62.33-75.483-50.6-88.536 11.82-13.053 53.53 5.392 93.26 41.241 39.64 35.755 54.39 84.186 50.61 88.537l25.35 24.499.76.851c12.39 10.783 27.43 24.12 41.43 39.822 13.9 15.608 29.98 37.836 44.36 59.214l4.07 4.635c42.66 57.132 72.64 125.521 85.03 195.801 7.76 44.174 11.35 89.293 10.88 134.318 2.27-16.08 15.8-53.349 45.59-83.712 37.46-38.12 78.04-59.119 90.62-46.728 12.58 12.297-7.66 53.255-45.21 91.374-37.46 38.12-86.55 50.701-90.62 46.728-.19-.189-.38-.568-.47-1.041-.95 43.89-5.77 87.78-14.57 130.724 8.13-17.026 27.9-45.592 58.93-66.308 44.46-29.701 88.44-41.998 98.18-27.431 9.75 14.662-18.35 50.606-62.81 80.307-42.47 28.472-90.61 31.877-97.52 27.999-1.7 7.472-3.5 14.945-5.48 22.323l-37.84 104.617c9.65-14.756 35.57-41.809 72.36-57.7 49.19-21.094 94.69-25.067 101.59-8.892 6.91 16.175-27.34 46.349-76.52 67.443-47.58 20.432-96.2 14.472-101.21 9.365l-54.77 107.359c-.1.095-.1.189-.19.284 15.32-12.391 40.39-27.526 70.85-34.62 52.12-12.202 97.52-8.229 101.59 8.892 3.97 17.12-35 40.863-87.03 53.063-45.97 10.78-88.91-.09-99.22-6.62-24.22 34.81-51.84 67.35-81.44 97.71 16.36-10.31 46.54-23.36 81.82-25.25 53.44-2.94 97.52 8.89 98.47 26.48.94 17.6-41.53 34.15-94.97 37.18-50.61 2.83-93.46-18.36-98.09-25.45-3.12 3.12-6.25 6.15-9.46 9.18l-84.85 71.98c18.45-6.72 49-13.05 82.2-8.8 53.07 6.91 94.21 26.68 91.94 44.08-2.27 17.41-47.1 26.01-100.17 19.11-48.05-6.24-85.13-32.73-91.09-41.91-34.15 23.08-70.37 42.19-108.02 58.08 19.48-2.55 49.66-2.17 80.12 8.33 50.51 17.5 86.83 45.12 81.15 61.76-5.77 16.65-51.36 15.9-101.96-1.6-46.45-16.08-77.57-50.23-80.88-59.78-26.48 10.21-53.72 18.91-81.44 26.29-8.891 2.37-17.783 4.35-26.769 6.15 18.729 3.22 42.66 10.5 65.269 24.69 45.31 28.47 74.44 63.56 65.08 78.41-9.37 14.85-53.64 3.88-98.945-24.5-37.458-23.55-59.592-58.55-64.416-72.64-17.404 3.03-34.62 6.24-51.457 10.78 10.689 6.15 20.621 13.62 28.85 22.42l16.27 21.57c3.31 7.09.283 15.51-6.811 18.91-7.094 3.32-15.513.29-18.918-6.81-5.959-12.29-12.202-23.08-24.12-30.93-8.703-5.67-17.689-10.4-26.958-14.37-9.27 3.97-18.256 8.7-26.959 14.37-11.918 7.76-18.161 18.54-24.12 30.93-3.311 7.1-11.824 10.13-18.918 6.81-7.094-3.31-10.121-11.82-6.811-18.91l16.27-21.57c8.324-8.8 18.161-16.27 28.85-22.42-16.837-4.54-34.147-7.75-51.457-10.78-4.824 14.09-26.864 49.09-64.416 72.64-45.309 28.48-89.577 39.45-98.941 24.5-9.365-14.85 19.769-50.03 65.078-78.41 22.607-14.19 46.633-21.57 65.267-24.69-8.986-1.8-17.972-3.78-26.769-6.15-27.715-7.47-54.862-16.17-81.442-26.29-3.311 9.64-34.431 43.79-80.875 59.78-50.511 17.5-96.198 18.16-101.968 1.6-5.77-16.64 30.553-44.26 81.158-61.76 30.458-10.6 60.633-10.88 80.118-8.33-37.647-15.89-73.875-35.09-108.022-58.08-5.959 9.09-43.038 35.57-91.09 41.91-53.065 6.9-97.901-1.61-100.171-19.11-2.27-17.4 38.877-37.17 91.942-44.08 33.201-4.35 63.753 1.99 82.198 8.8l-84.847-71.98-9.459-9.18c-4.54 7.09-47.389 28.19-98.09 25.45-53.443-2.94-95.914-19.58-94.968-37.18.946-17.59 45.025-29.42 98.468-26.48 35.188 1.98 65.362 14.94 81.82 25.25-29.512-30.36-57.227-63-81.442-97.71-10.31 6.53-53.254 17.4-99.225 6.62-52.119-12.2-91.09-35.943-87.022-53.063 3.972-17.121 49.47-21.094 101.589-8.892 30.553 7.189 55.619 22.229 70.848 34.62-.094-.095-.094-.189-.189-.284l-54.768-107.359c-5.013 5.107-53.632 11.067-101.211-9.365-49.187-21.094-83.428-51.268-76.523-67.443 6.905-16.175 52.403-12.202 101.589 8.892 36.89 15.796 62.714 42.944 72.362 57.7l-37.836-104.617c-1.987-7.378-3.784-14.851-5.486-22.323-6.906 3.878-55.052.473-97.523-27.999-44.457-29.701-72.55-65.74-62.808-80.307 9.743-14.661 53.728-2.365 98.185 27.431 31.025 20.716 50.889 49.376 58.929 66.308-8.891-42.944-13.715-86.834-14.566-130.724-.095.473-.284.852-.473 1.041-4.068 3.973-53.16-8.608-90.618-46.728-37.457-38.119-57.7-79.077-45.214-91.374 12.58-12.296 53.16 8.608 90.618 46.728 29.795 30.269 43.322 67.632 45.592 83.712-.473-45.025 3.121-90.144 10.878-134.318 12.297-70.28 42.282-138.669 85.036-195.801l4.068-4.635c14.377-21.378 30.458-43.512 44.362-59.214 14-15.796 29.04-29.039 41.431-39.822l.757-.851 25.35-24.499c-3.784-4.351 10.878-52.687 50.606-88.537 39.727-35.85 81.442-54.294 93.265-41.24l.19.094Zm879.598.19c17.59-.851 34.05 41.714 36.7 95.158 2.74 53.443-21.19 98.089-26.87 98.373-5.67.284-34.05-41.714-36.7-95.157-2.74-53.444 9.27-97.428 26.87-98.374Zm-1084.197 0c17.594.851 29.607 44.93 26.864 98.374-2.743 53.443-31.026 95.441-36.701 95.157-5.676-.284-29.607-44.93-26.864-98.373 2.743-53.444 19.202-96.01 36.701-95.158ZM162.506 128.359c17.215-3.594 40.106 35.85 51.173 88.158s-5.581 100.171-11.162 101.306c-5.581 1.135-40.106-35.85-51.173-88.158s-6.054-97.711 11.162-101.306ZM66.213 282.163c15.702-7.851 47.957 24.498 71.888 72.266 24.026 47.769 20.054 98.28 15.04 100.834-5.108 2.553-47.957-24.499-71.888-72.267-24.026-47.768-30.742-92.982-15.04-100.833Zm232.786 193.626c11.446 13.337-12.296 52.403-52.97 87.117-40.674 34.715-90.618 43.039-94.307 38.687-3.689-4.351 12.297-52.402 52.971-87.117 40.674-34.715 82.861-52.025 94.306-38.687Zm1214.441-347.43c17.22 3.595 22.23 48.998 11.16 101.306-11.06 52.308-45.59 89.388-51.17 88.158-5.58-1.135-22.23-48.998-11.16-101.306s33.96-91.847 51.17-88.158Zm-136.49 347.43c11.44-13.338 53.63 3.972 94.3 38.687 40.68 34.715 56.66 82.766 52.97 87.117-3.68 4.352-53.63-3.972-94.3-38.687-40.68-34.714-64.42-73.78-52.97-87.117Zm232.78-193.626c15.71 7.851 8.99 53.065-15.04 100.833-24.02 47.768-66.87 74.82-71.88 72.267-5.11-2.554-8.99-53.065 15.04-100.834 24.02-47.768 56.18-80.117 71.88-72.266ZM305.431 707.534c15.608 8.041 8.513 53.16-15.985 100.739-24.405 47.579-67.538 74.159-72.551 71.605-5.013-2.554-8.513-53.16 15.986-100.739 24.404-47.579 56.943-79.645 72.55-71.605Zm1064.989 0c15.61-8.04 48.15 24.026 72.55 71.605 24.41 47.579 21 98.09 15.99 100.739-5.02 2.554-48.15-24.026-72.55-71.605-24.41-47.579-31.6-92.698-15.99-100.739Z" clip-rule="evenodd"/></g><defs><clipPath id="a"><path fill="#fff" d="M0 0h1675.57v1425H0z"/></clipPath></defs></svg>