<svg xmlns="http://www.w3.org/2000/svg" width="113" height="113" fill="none"><g clip-path="url(#a)"><path fill="#4D4D4D" d="M56.5.5c30.928 0 56 25.072 56 56s-25.072 56-56 56-56-25.072-56-56 25.072-56 56-56Zm-.917 14.877-1.959 11.368c-.156.907-1.39 1.062-1.765.223L47.14 16.445c-.428-.954-1.86-.586-1.775.458l.925 11.5c.074.916-1.082 1.374-1.655.655l-7.182-9.017c-.652-.818-1.948-.104-1.607.885l3.75 10.908c.299.869-.706 1.601-1.44 1.048l-9.195-6.944c-.833-.63-1.911.383-1.336 1.258l6.34 9.63c.505.768-.287 1.727-1.135 1.373L22.2 33.765c-.963-.403-1.756.848-.982 1.551l8.53 7.748c.68.617.152 1.744-.757 1.613L17.595 43.03c-1.034-.15-1.49 1.26-.566 1.747l10.185 5.38c.812.429.58 1.651-.333 1.752l-11.447 1.244c-1.038.113-1.131 1.59-.115 1.833l11.2 2.672c.894.213.972 1.456.113 1.78l-10.778 4.057c-.978.369-.701 1.823.343 1.806l11.512-.204c.918-.016 1.302 1.169.55 1.696l-9.433 6.616c-.855.6-.226 1.94.781 1.662l11.1-3.064c.886-.245 1.551.806.954 1.505l-7.494 8.758c-.68.795.262 1.936 1.169 1.415l9.99-5.734c.797-.457 1.703.396 1.298 1.22l-5.085 10.35c-.461.94.734 1.81 1.483 1.08l8.254-8.042c.658-.642 1.747-.042 1.56.858L40.478 94.71c-.213 1.025 1.162 1.57 1.705.677l5.997-9.848c.479-.785 1.682-.475 1.724.443l.521 11.525c.048 1.045 1.514 1.231 1.819.23l3.365-11.032c.269-.88 1.511-.88 1.78 0l3.365 11.032c.305 1.001 1.771.815 1.819-.23l.52-11.525c.042-.918 1.246-1.228 1.725-.443l5.997 9.848c.544.893 1.919.348 1.705-.677l-2.355-11.292c-.189-.9.9-1.5 1.559-.858l8.254 8.043c.748.73 1.943-.141 1.482-1.08l-5.084-10.35c-.406-.825.5-1.678 1.297-1.221l9.99 5.734c.907.52 1.85-.62 1.17-1.415l-7.495-8.758c-.597-.699.069-1.75.954-1.506l11.1 3.064c1.007.278 1.637-1.061.781-1.661l-9.433-6.617c-.752-.526-.368-1.711.55-1.695l11.512.203c1.045.018 1.322-1.437.344-1.805l-10.779-4.057c-.858-.324-.78-1.567.112-1.78l11.201-2.672c1.016-.242.924-1.72-.115-1.834l-11.447-1.244c-.912-.1-1.145-1.322-.333-1.751l10.185-5.38c.924-.488.468-1.896-.566-1.747l-11.396 1.647c-.909.131-1.438-.996-.758-1.613l8.53-7.749c.775-.702-.018-1.953-.982-1.55L80.17 38.199c-.848.354-1.64-.606-1.135-1.374l6.34-9.63c.575-.874-.502-1.887-1.336-1.257l-9.195 6.943c-.733.554-1.739-.178-1.44-1.047l3.75-10.908c.34-.99-.955-1.703-1.606-.885l-7.183 9.017c-.573.719-1.729.26-1.655-.656l.925-11.5c.084-1.043-1.348-1.411-1.776-.457l-4.718 10.523c-.377.84-1.61.684-1.765-.223l-1.96-11.368c-.177-1.031-1.655-1.031-1.833 0Z"/><path fill="#4D4D4D" d="M41.981 59.815c6.603 11.555 23.265 11.555 29.867 0Z"/><path stroke="#222" stroke-linecap="round" stroke-linejoin="round" stroke-width="4.148" d="M41.981 59.815c6.603 11.555 23.265 11.555 29.867 0"/><path fill="#4D4D4D" d="M44.056 44.056a3.319 3.319 0 1 1 0 6.637 3.319 3.319 0 0 1 0-6.637Zm24.888 0a3.319 3.319 0 1 1 0 6.637 3.319 3.319 0 0 1 0-6.637Z"/></g><defs><clipPath id="a"><path fill="#fff" d="M.5.5h112v112H.5z"/></clipPath></defs></svg>